{"title":"Its a Mile from  glory","uid":7474975,"size":733881386,"categoryP":"video","categoryS":"movies","magnet":"?xt=urn:btih:c4a6a2b0110de310512fbd5006ea6a66bbab42e8&amp;dn=Its+a+Mile+from++glory&amp;tr=udp%3A%2F%2Ftracker.openbittorrent.com%3A80&amp;tr=udp%3A%2F%2Fopen.demonii.com%3A1337&amp;tr=udp%3A%2F%2Ftracker.coppersurfer.tk%3A6969&amp;tr=udp%3A%2F%2Fexodus.desync.com%3A6969","seeders":0,"leechers":0,"uploader":"doobsie101","files":-1,"time":1343266727,"description":"ABC After School Specials:\nIts a mile from here to glory\n\nIMDB: &lt;a href=&quot;\nhttp://www.imdb.com/title/tt0385788/&quot; rel=&quot;nofollow&quot; target=&quot;_NEW&quot;&gt;\nhttp://www.imdb.com/title/tt0385788/&lt;/a&gt;\n\nMEDIA: TVRip ? possible VHS\n\nImages: &lt;a href=&quot;\nhttp://bayimg.com/CaAJbAAEE&quot; rel=&quot;nofollow&quot; target=&quot;_NEW&quot;&gt;\nhttp://bayimg.com/CaAJbAAEE&lt;/a&gt;\n\nDescription:\nA high school track star is involved in a life threatening accident, and now must learn to depend on others for his day to day living. \n\n\nMediaInfo:\n\nFormat                                   : AVI\nFormat/Info                              : Audio Video Interleave\nFile size                                : 700 MiB\nDuration                                 : 45mn 31s\nOverall bit rate                         : 2 149 Kbps\nWriting application                      : VirtualDubMod 1.5.4.1 (build 2178/release)\nWriting library                          : VirtualDubMod build 2178/release\n\nVideo\nID                                       : 0\nFormat                                   : MPEG-4 Visual\nFormat settings, BVOP                    : 1\nFormat settings, QPel                    : No\nFormat settings, GMC                     : No warppoints\nFormat settings, Matrix                  : Default (H.263)\nMuxing mode                              : Packed bitstream\nCodec ID                                 : DX50\nCodec ID/Hint                            : DivX 5\nDuration                                 : 45mn 31s\nBit rate                                 : 1 980 Kbps\nWidth                                    : 640 pixels\nHeight                                   : 480 pixels\nDisplay aspect ratio                     : 4:3\nFrame rate                               : 29.970 fps\nColor space                              : YUV\nChroma subsampling                       : 4:2:0\nBit depth                                : 8 bits\nScan type                                : Progressive\nCompression mode                         : Lossy\nBits/(Pixel*Frame)                       : 0.215\nStream size                              : 645 MiB (92%)\nWriting library                          : DivX 5.2.1 (WaffleDay) (UTC 2004-09-08)\n\nAudio\nID                                       : 1\nFormat                                   : MPEG Audio\nFormat version                           : Version 1\nFormat profile                           : Layer 3\nMode                                     : Joint stereo\nMode extension                           : MS Stereo\nCodec ID                                 : 55\nCodec ID/Hint                            : MP3\nDuration                                 : 45mn 31s\nBit rate mode                            : Constant\nBit rate                                 : 160 Kbps\nChannel(s)                               : 2 channels\nSampling rate                            : 48.0 KHz\nCompression mode                         : Lossy\nStream size                              : 52.1 MiB (7%)\nAlignment                                : Aligned on interleaves\nInterleave, duration                     : 67 ms (2.00 video frames)\nInterleave, preload duration             : 504 ms\nWriting library                          : LAME3.96r\n","torrent":{"xt":"urn:btih:c4a6a2b0110de310512fbd5006ea6a66bbab42e8","amp;dn":"Its+a+Mile+from++glory","amp;tr":["udp%3A%2F%2Ftracker.openbittorrent.com%3A80","udp%3A%2F%2Fopen.demonii.com%3A1337","udp%3A%2F%2Ftracker.coppersurfer.tk%3A6969","udp%3A%2F%2Fexodus.desync.com%3A6969"],"infoHash":"c4a6a2b0110de310512fbd5006ea6a66bbab42e8","infoHashBuffer":{"type":"Buffer","data":[196,166,162,176,17,13,227,16,81,47,189,80,6,234,106,102,187,171,66,232]},"announce":[],"urlList":[]}}